<svg xmlns="http://www.w3.org/2000/svg" xml:space="preserve" y="0" x="0" id="Layer_1" version="1.1" viewBox="0 0 124.1 52.2"><style id="style2" type="text/css">.st0{fill:#ec1c24}.st1{fill:#f6921e}.st2{fill:#231f20}</style><g transform="translate(-2 -.4)" id="g118"><path id="path4" d="M83.8 17.6H63c-.4 0-.7.3-.7.7v1.6c0 .4.3.7.7.7h15.5v8.6c-.4-.6-.9-1.2-1.5-1.8-1.8-1.9-3.8-2.8-5.8-2.8-1.6 0-3 .8-4.1 2.3-.9 1.2-1.4 2.7-1.4 4 0 1.4.2 3.1 1.3 4.7 1.3 1.9 3.3 2.5 5.1 2.5 2.4 0 4.4-1.7 4.4-3.8 0-1.3-.6-2.3-1.8-2.9l-1.1-.6v1.7c-.1.5-1 1.2-1.9 1.2-.8 0-1.6-.3-2-.8-.3-.4-.5-.9-.4-1.4 0-.6.2-1.1.7-1.7.5-.6 1-.9 1.8-.9 2.1 0 3.8 1 5.2 3 1.1 1.7 1.7 3.4 1.7 5.2v4.3l3.1 1.9c.1.1.2.1.3.1.4 0 .7-.3.7-.7V20.6H84c.4 0 .7-.3.7-.7v-1.6c-.3-.4-.6-.7-.9-.7z" class="st0"/><path id="path6" d="M125.3 17.6H99c-.4 0-.7.3-.7.7v2.9c-2.5-2.7-4.8-4-6.9-4-2 0-3.6.5-5 1.5-1.4 1.1-2.1 2.4-2.1 3.9 0 4.6 5.2 4.6 6.4 3.9.2-.1.5-.3.9-.3 1 0 1.4.8 1.4 1.5 0 1.1-1.5 2-3.3 2-1 0-1.7-.3-2.1-.9l-.8-1.2-.6 1.4c-.1.3-.3.7-.3 1.2 0 1.1.5 2.1 1.5 2.9 1 .8 2.1 1.2 3.3 1.2 2 0 3.6-.7 4.7-2.1.9-1.1 1.3-2.5 1.3-4 0-.9-.3-1.7-1-2.7-.8-1.2-1.8-1.8-3-1.8-.4 0-.9.1-1.5.3-.2-.1-.5 0-.6 0-.2 0-.5-.1-.7-.4-.2-.2-.4-.5-.4-1 0-1.1 1.1-2.3 2.9-2.3h.1c1.2 0 2.4.6 3.6 1.8.9.9 1.7 1.8 2.2 2.8v16.4l3.1 1.8c.1.1.2.1.3.1.4 0 .7-.3.7-.7v-22h4.7v14.2l3.7 1.5h.2c.3 0 .6-.3.7-.6v-.1c.6-4.2 2.5-7.1 5.6-8.9v.8c0 .6 0 2.1.1 3 0 .5 0 .8.1 1.1 0 1.6.2 4.2.8 6 1 3.5 2.8 4.3 4.1 4.4h.1c.8 0 1.3-.2 1.7-.6.2-.2.5-.7.5-1.3 0-.7-.1-1.2-.3-1.5l-.3-.5-.6.1c-.7.2-.9.2-.9.1h-.1c-.2 0-.2 0-.3-.1-.2-.1-.6-.5-.9-1.6-.2-.8-.3-2-.3-2.6 0-4.6 1-8.1 2.4-8.9h.1c.2-.1.4-.3.4-.6 0-.1 0-.2-.1-.3V24c-.7-1.4-2.2-2.4-4.3-3h-.4c-1.6.3-3.6 1.4-6.1 3.5-.6.5-1.2 1.1-1.8 1.6v-5.7h14.2c.4 0 .7-.3.7-.7v-1.6c-.1-.2-.4-.5-.8-.5z" class="st0"/><g id="g68"><path id="path8" d="M50.7 28.2c0 .7 0 1.3-.1 2-.2 2.9-1 5.6-2.1 8.1-.5 1-1 2-1.6 2.9C42.6 48 35 52.6 26.3 52.6c-3.7 0-7.2-.8-10.4-2.3C7.7 46.4 2 38 2 28.2c0-9.5 5.5-17.8 13.5-21.8-.6.8-1.2 1.7-1.7 2.6 0 .1-.1.1-.1.2-.3.3-.6.5-.9.8-.4.3-.7.7-1.1 1.1-.1.1-.2.2-.2.3-.1.1-.2.2-.2.3l-.4.4c-.3.3-.5.6-.7.9-1 1.3-1.8 2.8-2.5 4.3-.1.2-.1.3-.2.5s-.1.4-.2.5c-.3.2-.3.3-.3.4l-.3.9c-.1.2-.1.4-.2.6 0 .1-.1.2-.1.3 0 .2-.1.4-.1.6-.1.5-.3 1.1-.3 1.7 0 .2 0 .3-.1.5v2.5c0 6.6 3 12.5 7.8 16.4 3.7 3 8.4 4.8 13.5 4.8 4.6 0 8.9-1.5 12.4-4 2.6-1.8 4.7-4.2 6.2-7 .2-.4.4-.7.6-1.1 1.2-2.6 1.9-5.4 2-8.4v-.7c0-.7 0-1.4-.1-2.1l.1.1c.3.3.6.6 1 .8.3-.5.6-1 1-1.4.2.9.3 1.9.4 2.8-.2.8-.1 1.5-.1 2.2" class="st0"/><path id="path10" d="M48.3 25.8v.7c0 4.3-1.8 7.9-2 8.4-.2.4-.4.7-.6 1.1-1.5 2.8-3.7 5.2-6.2 7-3.5 2.5-7.8 4-12.4 4-5.1 0-9.8-1.8-13.5-4.8-4.8-3.9-7.8-9.8-7.8-16.4v-2.5c0-.2 0-.3.1-.5.1-.6.3-1.2.4-1.8 0-.2.1-.4.1-.6 0-.1.1-.2.1-.3.1-.2.1-.4.2-.6.1-.3.2-.5.3-.8 0-.1.1-.2.1-.3.1-.2.1-.4.2-.5.1-.2.1-.3.2-.5.7-1.6 1.5-3 2.5-4.3.2-.3.5-.6.7-.9.1-.1.2-.3.4-.4.1-.1.1-.2.2-.3.1-.1.2-.2.2-.3.3-.4.7-.7 1.1-1.1.3-.3.6-.6.9-.8 0 .1-.1.2-.1.2 0 .1-.1.2-.1.3-1.2 2.5-2 5.4-2.3 8.6-.1.8-.1 1.7-.1 2.6 0 11.1 6.5 20.1 14.6 20.1h.9c1.2 0 2.3-.2 3.4-.5 5.5-1.5 9.5-6.5 9.5-12.4v-.4c-.1-3.5-1.6-6.7-4-8.9 1.7 0 3.3.3 4.8.7 3 .8 5.7 2.2 8 4l.1.1c0 .7.1 1.4.1 2.1" class="st1"/><path id="path12" d="M48.3 25.8v.7c0 4.6-2 8.4-2 8.5-.2.4-.4.7-.6 1.1-1.5 2.8-3.7 5.2-6.2 7.1-3.6 2.6-8 4-12.5 4-4.9 0-9.7-1.7-13.5-4.8-5-4.1-7.8-10.1-7.8-16.5s2.9-12.5 7.9-16.6l.2-.2c0 .1-.1.1-.1.2s-.1.2-.1.2c-4.9 4-7.6 10-7.6 16.3 0 6.4 2.8 12.3 7.8 16.4C17.4 45.3 22.1 47 27 47c4.5 0 8.7-1.4 12.4-4 2.5-1.8 4.7-4.3 6.2-7 .2-.4.4-.7.6-1.1 0 0 2.1-3.9 2-8.4v-.7c0-.7 0-1.4-.1-2v-.1l.1.1.1.1v1.9" class="st1"/><path id="path14" d="M42.5 12.6S25.1 9.3 17 24.4c0 0 1.4-10.4 13.8-15.2l-2.5-4.6S33.3.1 42 1.3z" class="st0"/><path id="path16" d="M21 20.6s6.9-9.1 22.8-6.7l-.2-5.3s6.6-.2 12 4.4L49 23s-4.5-5.3-13.9-5.4c-3.9-.1-8.6.4-14.1 3" class="st1"/><path id="path18" d="M24.7 24.1s-1.5.3-1.4-.4c0-.3.2-.4.3-.3 0-.1-.3-.5.4-.7.2-.3.4-.6.5-.8.1-.2.2-.5.8-.3.6.1 1.2.7 1.3.9.3 0 .7.1.6.1l-.2.2s.2.1-.4.1c0 .1.1.2.2.2.1.1 0 .1 0 .2 0 0 .1.3-.2.2-.3-.1-.3-.2-.4-.2-.1 0-.3 0-.3.1s.3.3 0 .3c-.1.1.1.2 0 .2-.1.1-.8.6-1.1.7-.3 0-.4-.1-.4-.2s.2-.2.4-.2c-.1 0 0-.1-.1-.1" class="st0"/><path id="path20" d="M24.6 25.7c-.1 0-.6-.3-.3-.4.2-.2 1.2-.8 1.4-.9.2-.1.5.2.2.4-.3.3-1.3.9-1.3.9" class="st0"/><path id="path22" d="M26.1 25c0-.2.2-.8.2-.9 0-.1.5-.2.4.4-.2.5-.6.7-.6.5" class="st0"/><path id="path24" d="M26.8 23.8s2.8-.1 3 0c.2.1 1.2 1.6.9 2.9-.2 1.3-.6 1.6-2.4 1.8 0-.4-.1-1.5-.3-1.8-.2-.3-.8-1-1-1 0 .3-.1 1.2-.1 1.2s-.9.1-1-.1v-1.4s.8-.7.9-.9c.1.1.2.5 1.1.4 0 .1-1.1.2-1.1-1.1" class="st0"/><path id="path26" d="M25.7 25.1s-.9.7-1.1.9c-.1.2-.2 1 .9 1 .2-.5.2-1.9.2-1.9" class="st0"/><path id="path28" d="M23.6 26.2c-.3 0-.5-.1-.5-.3 0-.2.4-.5.7-.4.2.1.7.2.7 1.1.2.2.7.6 1.4.6s1.1 0 1.1.2v1.3s-.8 0-2.8-1.4c-.2-.2-.3-.4-.3-.7 0-.3-.2-.4-.3-.4" class="st0"/><path id="path30" d="M23 26.3c-.3 0-1.3.8-.6 1.1l.4-.4s-.2.5.2.6c.4.1.2-.2.4-.2.1.2.1.3.3.3.2 0 .2-.6 0-.9-.1-.3-.3-.5-.7-.5" class="st0"/><path id="path32" d="M27.2 26.4V29s.8-.3.9-.5c0-.4-.2-2.1-.9-2.1" class="st0"/><path id="path34" d="M25.1 28.1s1 .7 1.6.9c-.1.1-.5.7-.7.6-.1 0-.8-1-.9-1.5" class="st0"/><path id="polygon36" class="st0" d="M20.2 29.1h1.4v.5h-1.3z"/><path id="polygon38" class="st0" d="M35.1 28.8h-5.7l.9.7h4.8z"/><path id="path40" d="M28.3 28.8c.1-.1.8.4.6.5-.2.1-2 .8-2.1.8-.2-.1-.1-.5.1-.6.1-.1 1.1-.4 1.4-.7" class="st0"/><path id="path42" d="M26.3 30c-.2-.1-1.3 1-.8 1.1.5.1 1.7.3 2 .5.3-.1.5-.4.5-.5.2 0 .5.3.8.2.3-.1 1.7-1.1 1.7-1.3-.3-.2-.9-.6-1.2-.6-.2-.1-2 1-3 .6" class="st0"/><path id="path44" d="M25.7 31.4c.1 0 1.6.5 1.9.5.4-.1.4-.4.6-.4.2 0 .3.2.6 0s1-.8 1.1-.9c0 .2 0 .8-1.3 1.4-1.3.6-4.4 1.5-4.5 1.9.1 0 .5-.1.8-.2.2.1.5.5.4 1.2-.1.7-.6 1.8-.6 2.1v1.9c0 .1.3 1-.1.9-.4-.1-.6-.1-.8 0-.2 0-.5.3-.7.2-.3 0-.7-.2-.7-.3 0-.1.3-.1.6-.2s.4-.4.9-.6c0-.3-.2-2.8-.2-3.3s-.2-1.6.1-2c.2-.6 1.4-2.3 1.9-2.2" class="st0"/><path id="path46" d="M27.6 32.8c0 .2.9 2.4 1.3 2.4s4.1-.8 4.8-.5c.2.3.6.8.6 1.1 0 0 .1.7 0 .8.1 0 .4-.1.5-.3.1-.2 0-1.2 0-1.4 0-.2.5-1.1-.1-1-.6 0-2.3 0-2.9-.1-.5-.1-1.8-.4-2.1-.2-.3.2-.7.7-.7.8-.1 0-.2-.1 0-.5.1-.4.6-1.5.5-2.1-.3.1-1.9 1-1.9 1" class="st0"/><path id="path48" d="M25.5 29.3c0 .1.1.3.2.4l-2.9-.2s-.3-.2-.2-.3z" class="st0"/><path id="path50" d="M22.3 29.1h2.9s-.2-.3-.3-.5h-2.7s-.3 0-.3.6c0 .1.2.3.4-.1" class="st0"/><path id="path52" d="M19.5 29.6h.6s.2-.1 0-.3c-.2-.2-.6-.4-.3-.8-.3 0-.7-.1-.6.8h-.3s-.1-.5-.8-.5c-.7 0-2.4.7-2.4.7s1.9.5 2.4.5.8-.5.8-.5h.2s.1.4.2.5v.6s-.3.1-.2.4c0 .3.2.3.3.3.1 0 .1-.1.4-.1.1-.1 0-.5-.2-.6v-.4s.2-.2.2-.3c-.1-.2-.3-.1-.3-.3" class="st0"/><path id="path54" d="M23 32.4c.2-.1.3-.4.3-.4v-1.7c0-.4-.7-.7-.8-.7-.1.1-.3.2-.4.2-.2 0-.3 0-.5-.2-.6 0-.9.7-.9.8 0 .1-.1 1.4 0 1.6 0 .2.2.4.3.5-.1.4-.7 2.7.1 3v.4h2v-.4c.6-.5.1-2.5-.1-3.1m-2.3-2.1c0-.1.3-.6.7-.6.2.2.4.2.6.2.2 0 .4-.2.5-.2.2.1.6.3.6.6V32c0 .1-.1.2-.2.3h-.4v-.8h-1.3v.7h-.3c-.1-.1-.2-.2-.2-.4v-1.5m1.4 4.7h-.4c-.1 0-.2-.1-.2-.2s.1-.2.2-.2h.4c.1 0 .2.1.2.2s-.1.2-.2.2m.8.2l-1-1.1-.9 1.1c-.6-.2-.2-2 0-2.8h1.9c.2.8.5 2.5 0 2.8" class="st0"/><path id="path56" d="M22.6 33.2c.2-.3-.1-.5-.1-.5h-1.2c-.4 0-.3.5-.3.5l.7.6c.2 0 .7-.3.9-.6" class="st0"/><path id="path58" d="M22.1 33.9l.7.8s-.1-1-.1-1.3c-.1.1-.6.5-.6.5" class="st0"/><path id="path60" d="M21.1 33.4c0 .3-.1 1.3-.1 1.3l.7-.8s-.4-.4-.6-.5" class="st0"/><path id="path62" d="M22.5 31.3h.1v-.1c0-.1-.1-.1-.1-.1h-1.1c-.1 0-.1.1-.1.1v.1h.1z" class="st0"/><path id="path64" d="M20.9 35.9h-.1v.1c0 .1.1.1.1.1h2c.1 0 .1-.1.1-.1v-.1h-.1z" class="st0"/><path id="path66" d="M14.2 28.8S6.3 11.5 24.7.4l4.4 8.1s-3 1-6.2 3.8c-3.5 3-7.2 8-8.7 16.5" class="st1"/></g><g id="g116"><path id="path70" d="M64.4 49.4v1.3l1.1-.4.3.3v.4c0 .4-.1.8-.4 1.1-.2.3-.6.4-1 .4-.5 0-.9-.2-1.2-.6-.3-.3-.5-.7-.7-1.2l.3-.2c.4 1.1.9 1.6 1.6 1.6.3 0 .5-.1.7-.3.2-.2.3-.4.3-.7 0-.1 0-.2-.1-.3l-1 .4-.3-.4v-1.4h-1.7v-.3h3.8v.3z" class="st2"/><path id="polygon72" class="st2" d="M66.5 52.4v-3H66v-.3h1.3v.3h-.4v3z"/><path id="path74" d="M69.4 49.4v.2c.3 0 .6.1.9.3.3.2.5.4.5.7 0 .2-.1.4-.3.6-.2.1-.4.2-.6.2h-.1V51h.2c.3 0 .4-.1.4-.4 0-.3-.3-.5-1-.6v2.4H69l-.6-.9c-.3-.3-.6-.4-1-.4l-.1-.5c.2-.2.8-.5 1.7-1v-.2h-1.8v-.3H71v.3zm-.4.6c-.2.1-.4.2-.5.3l-.5.5c.2.1.4.3.5.5.1.1.3.3.5.6z" class="st2"/><path id="path76" d="M76.1 48.5c-.6-.4-1.2-.6-1.6-.6-.4 0-.7.1-1 .3-.3.2-.4.5-.4.9h.4v.3h-.4v2.9h-.4v-2.9h-.4v-.3h.4c0-.5.2-.9.5-1.2.3-.3.7-.4 1.2-.4.3 0 .6.1 1 .2.2.1.5.3.9.5z" class="st2"/><path id="path78" d="M76.4 49.4v3H76c-.2-.3-.5-.6-1-.9-.5-.3-.9-.4-1.3-.4l-.1-.5c.2-.2.6-.4 1.2-.6.2-.1.6-.2 1.3-.5v-.2h-2.7V49h3.5v.3h-.5zm-.4.6c-.4.1-1 .4-1.8.8.7.3 1.3.6 1.8 1z" class="st2"/><path id="path80" d="M76.7 49.1h3.7v.3h-3.7zm2.1 3.3c-.4 0-.8-.2-1.2-.6-.3-.3-.5-.7-.7-1.2l.2-.2c.1.4.3.8.6 1.1.3.4.6.6 1 .6.3 0 .5-.1.7-.3.2-.2.3-.4.3-.7-.3.2-.5.3-.8.3-.2 0-.5-.1-.6-.2-.2-.2-.3-.4-.3-.6 0-.2.1-.4.2-.6.1-.1.3-.2.6-.2.2 0 .3 0 .4.1.1.1.2.2.2.4 0 .1-.1.3-.2.4l-.3-.2c.1-.1.1-.1.1-.2s-.1-.2-.2-.2-.2 0-.3.1c-.1.1-.1.2-.1.3 0 .2.1.3.2.4.1.1.2.2.4.2.3 0 .6-.1.8-.4l.4.4c0 .4-.1.8-.4 1-.3.1-.6.3-1 .3" class="st2"/><path id="polygon82" class="st2" d="M80.8 52.4v-3h-.5v-.3h1.3v.3h-.5v3z"/><path id="path84" d="M83.1 52.6c-.4 0-.7-.1-.9-.2-.3-.3-.5-.8-.5-1.3 0-.3.1-.6.3-.9.1-.2.3-.5.6-.8h-1.2v-.3h1.9v.3c-.3.1-.6.3-.8.7-.3.3-.4.7-.4 1 0 .8.3 1.2 1 1.2.1 0 .2 0 .3-.1v.4h-.3" class="st2"/><path id="path86" d="M85.6 49.4v2.9h-.4v-1.9c0-.1-.1-.2-.2-.3-.2-.4-.5-.6-.9-.6-.1 0-.3.1-.4.2l-.2.2c.2-.1.3-.1.4-.1.2 0 .3 0 .5.1.1.1.2.2.2.4s-.1.4-.3.6c-.2.2-.4.4-.6.4l-.2-.3c.2-.1.3-.2.5-.3.2-.2.3-.3.3-.5 0-.1-.1-.2-.3-.2-.2 0-.3-.1-.4-.1h-.1l-.2-.4.4-.4c.2-.1.3-.2.5-.2.4 0 .8.2 1.1.7v-.7h.7v.3h-.4z" class="st2"/><path id="path88" d="M88.9 49.4v3h-.4c-.2-.3-.5-.6-1-.8-.5-.3-.9-.4-1.3-.4l-.1-.5c.6-.4 1.4-.7 2.4-1.1v-.2h-2.6v-.3h3.4v.3zm-.4.6c-.6.2-1.2.5-1.7.8.6.2 1.2.5 1.7 1zm-1 2.5c-.1-.1-.3-.3-.6-.4l.2-.3c.2.1.4.2.6.4z" class="st2"/><path id="path90" d="M94.4 48.5c-.6-.4-1.2-.6-1.6-.6-.4 0-.7.1-1 .3-.3.2-.4.5-.4.9h.4v.3h-.4v2.9H91v-2.9h-.4v-.3h.4c0-.5.2-.9.5-1.2.3-.3.7-.4 1.2-.4.3 0 .6.1 1 .2.2.1.5.3.9.5z" class="st2"/><path id="path92" d="M93.7 49.4v1.3l1.1-.4.3.3v.4c0 .4-.1.8-.4 1.1-.2.3-.6.4-1 .4-.5 0-.9-.2-1.2-.6-.3-.3-.5-.7-.7-1.2l.3-.2c.4 1.1.9 1.6 1.6 1.6.3 0 .5-.1.7-.3.2-.2.3-.4.3-.7 0-.1 0-.2-.1-.3l-1 .4-.4-.3v-1.4h-1.7v-.3h3.8v.3h-1.6z" class="st2"/><path id="path94" d="M99.1 48.5c-.6-.4-1.2-.6-1.6-.6-.4 0-.7.1-1 .3-.3.2-.4.5-.4.9h.4v.3h-.4v2.9h-.4v-2.9h-.4v-.3h.4c0-.5.2-.9.5-1.2.3-.3.7-.4 1.2-.4.3 0 .6.1 1 .2.2.1.5.3.9.5z" class="st2"/><path id="path96" d="M98.8 49.4c.1.4.4.6.9.6h.2l.3.4c-.2.5-.3.8-.3 1 0 .5.1.8.2 1l-.3.1c-.2-.3-.3-.6-.3-.9 0-.2 0-.4.1-.6 0-.1.1-.3.2-.6-.3 0-.6-.1-.8-.3-.3-.2-.4-.4-.5-.7-.4.3-.6.6-.6 1 0 .2.1.3.3.3.1 0 .2 0 .3-.1.1-.1.2-.1.2-.2h.3c.1.1.1.3.1.6 0 .8-.4 1.1-1.2 1.1-.1 0-.3 0-.5-.1-.1 0-.2-.1-.4-.2-.1-.2-.3-.5-.5-.9l.2-.2c.1.3.3.6.6 1l.3.1c.1.1.2.1.3.1.2 0 .4-.1.6-.2.2-.1.2-.3.2-.5 0-.1 0-.2-.1-.3-.2.2-.4.3-.6.3-.2 0-.4-.1-.5-.2-.1-.1-.2-.3-.2-.5 0-.3.1-.6.4-.9h-1.5v-.3h4.1v.3h-1.5z" class="st2"/><path id="path98" d="M101 49.4V52h.2c.3 0 .6-.1 1-.3.4-.2.6-.5.6-.8 0-.3-.2-.5-.5-.5-.1 0-.3.1-.5.2l-.2-.3c.2-.2.5-.2.8-.2.2 0 .4.1.6.3.1.2.2.4.2.6 0 .3-.2.6-.5.9-.3.2-.6.4-.9.4-.3.1-.6.1-1.1.1v-3h-.3v-.3h2.3V49c0-.2-.1-.4-.3-.5-.2-.1-.4-.2-.6-.2-.3 0-.7.1-1.1.4l-.1-.3c.5-.3.9-.4 1.3-.4.3 0 .6.1.9.3.2.2.4.5.4.8h.4v.3z" class="st2"/><path id="polygon100" class="st2" d="M103.8 52.4v-3h-.5v-.3h1.4v.3h-.5v3z"/><path id="path102" d="M108.1 49.4v3h-.4v-.6c0-.7-.2-1-.5-1-.1 0-.2.1-.3.2-.1.1-.1.2-.1.4h-.4c0-.1-.1-.3-.1-.4-.1-.1-.2-.2-.4-.2s-.3.1-.4.2c-.1.1-.1.3-.1.4 0 .4.2.5.7.5h.1l-.1.4h-.1c-.3 0-.5-.1-.7-.3-.2-.2-.3-.4-.3-.7 0-.3.1-.5.3-.7.2-.2.4-.3.7-.3.3 0 .5.2.7.5.2-.3.5-.5.7-.5.2 0 .4.2.5.5v-1.3h-3.2v-.3h3.9v.3h-.5z" class="st2"/><path id="path104" d="M110.4 51.1c0 .2 0 .4.1.6.1.3.3.4.5.4.1 0 .2 0 .3-.1l.1.3c-.1.1-.3.1-.4.1-.6 0-1-.5-1-1.5 0-.6.4-1.2 1.1-1.8h.6v.3c-.4.1-.7.3-.9.6-.3.3-.4.7-.4 1.1" class="st2"/><path id="path106" d="M115 49.4v3h-.4v-.6c0-.7-.2-1-.5-1-.1 0-.2.1-.3.2-.1.1-.1.2-.1.4h-.4c0-.1-.1-.3-.1-.4-.1-.1-.2-.2-.4-.2s-.3.1-.4.2c-.1.1-.1.3-.1.4 0 .4.2.5.7.5h.1l-.1.4h-.1c-.3 0-.5-.1-.7-.3-.2-.2-.3-.4-.3-.7 0-.3.1-.5.3-.7.2-.2.4-.3.7-.3.3 0 .5.2.7.5.2-.3.5-.5.7-.5.2 0 .4.2.5.5v-1.3h-3.2v-.3h3.9v.3h-.5z" class="st2"/><path id="path108" d="M118.3 49.4v3h-.4v-.2c0-.3-.2-.6-.5-.9-.3-.3-.7-.5-.9-.5-.1 0-.3 0-.4.1-.1.1-.2.2-.2.3 0 .1 0 .3.1.3.1.1.2.1.4.1.1 0 .2 0 .3-.1l.1.4c-.1.1-.3.1-.5.1s-.4-.1-.6-.3c-.1-.2-.2-.4-.2-.6 0-.3.1-.5.2-.6.2-.2.4-.3.6-.3.6 0 1.1.3 1.5 1v-1.9h-2.7V49h3.4v.3h-.2z" class="st2"/><path id="path110" d="M120.1 52.6c-.4 0-.7-.1-.9-.2-.3-.3-.5-.8-.5-1.3 0-.3.1-.6.3-.9.1-.2.3-.5.6-.8h-1.2v-.3h1.9v.3c-.3.1-.6.3-.8.7-.3.3-.4.7-.4 1 0 .8.3 1.2 1 1.2.1 0 .2 0 .3-.1v.4h-.3" class="st2"/><path id="path112" d="M120.5 49.4v1.3c.6-.4 1.1-.7 1.5-.8l.4.5c-.2.5-.3.8-.3 1.1 0 .2.1.5.2.8l-.3.1c-.1-.4-.2-.6-.2-.8 0-.4 0-.8.1-1.2-.4.2-.9.5-1.5 1l-.3-.3v-1.7h-.3v-.3h2.9v.3z" class="st2"/><path id="path114" d="M125.6 49.4v3h-.4v-.2c0-.3-.2-.6-.5-.9-.3-.3-.7-.5-.9-.5-.1 0-.3 0-.4.1-.1.1-.2.2-.2.3 0 .1 0 .3.1.3.1.1.2.1.4.1.1 0 .2 0 .3-.1l.1.4c-.1.1-.3.1-.5.1s-.4-.1-.6-.3c-.2-.2-.2-.4-.2-.6 0-.3.1-.5.2-.6.2-.2.4-.3.6-.3.6 0 1.1.3 1.5 1v-1.9h-2.7V49h3.4v.3h-.2z" class="st2"/></g></g></svg>